# xmcd
#
# Track frame offsets: 
#        150
#        17815
#        33122
#        48765
#        71406
#        88854
#        107494
#        130837
#        155661
#        168430
#        182659
#        203885
#        225784
#        247117
#
# Disc length: 3517 seconds
#
# Revision: 2
# Processed by: cddbd v1.5.2PL0 Copyright (c) Steve Scherf et al.
# Submitted via: ExactAudioCopy v1.0b4
#
DISCID=ac0dbb0e
DTITLE=JW Jones - My Kind Of Evil
DYEAR=2003
DGENRE=Blues, Jump Blues
TTITLE0=Shake That Mess
TTITLE1=What You Do To Me
TTITLE2=Ain't Gonna Lie
TTITLE3=I Don't Know
TTITLE4=Cheating Woman
TTITLE5=Nothing On Me
TTITLE6=You Can't Fool Me
TTITLE7=Slow Down
TTITLE8=Blue Monday
TTITLE9=My Kind Of Evil
TTITLE10=You've Got ME (Where You Want Me)
TTITLE11=Code Blue
TTITLE12=Aching Pain
TTITLE13=Let's Have A Ball
EXTD=Bluesfestradio.com YEAR: 2003
EXTT0=
EXTT1=
EXTT2=
EXTT3=
EXTT4=
EXTT5=
EXTT6=
EXTT7=
EXTT8=
EXTT9=
EXTT10=
EXTT11=
EXTT12=
EXTT13=
PLAYORDER=
